<mxfile host="Electron" agent="Mozilla/5.0 (Macintosh; Intel Mac OS X 10_15_7) AppleWebKit/537.36 (KHTML, like Gecko) draw.io/26.2.2 Chrome/134.0.6998.178 Electron/35.1.2 Safari/537.36" version="26.2.2">
  <diagram name="Page-1" id="QmMnH6I4Mamx6buTp_Jp">
    <mxGraphModel dx="1108" dy="1158" grid="1" gridSize="10" guides="1" tooltips="1" connect="1" arrows="1" fold="1" page="1" pageScale="1" pageWidth="827" pageHeight="1169" math="0" shadow="0">
      <root>
        <mxCell id="0" />
        <mxCell id="1" parent="0" />
        <mxCell id="TP6RT3fs8-BMAT7wUAnd-1" value="" style="rounded=0;whiteSpace=wrap;html=1;align=left;" vertex="1" parent="1">
          <mxGeometry x="39" y="180" width="750" height="690" as="geometry" />
        </mxCell>
        <mxCell id="TP6RT3fs8-BMAT7wUAnd-2" value="&lt;font style=&quot;font-size: 17px;&quot;&gt;&lt;b&gt;IP Core&lt;/b&gt;&lt;/font&gt;" style="rounded=0;whiteSpace=wrap;html=1;" vertex="1" parent="1">
          <mxGeometry x="60" y="390" width="290" height="150" as="geometry" />
        </mxCell>
        <mxCell id="TP6RT3fs8-BMAT7wUAnd-3" style="edgeStyle=orthogonalEdgeStyle;rounded=0;orthogonalLoop=1;jettySize=auto;html=1;" edge="1" parent="1" source="TP6RT3fs8-BMAT7wUAnd-4">
          <mxGeometry relative="1" as="geometry">
            <mxPoint x="250" y="900" as="targetPoint" />
            <Array as="points">
              <mxPoint x="250" y="880" />
              <mxPoint x="250" y="880" />
            </Array>
          </mxGeometry>
        </mxCell>
        <mxCell id="TP6RT3fs8-BMAT7wUAnd-4" value="&lt;font style=&quot;font-size: 17px;&quot;&gt;&lt;b&gt;DMA&lt;/b&gt;&lt;/font&gt;" style="rounded=0;whiteSpace=wrap;html=1;" vertex="1" parent="1">
          <mxGeometry x="60" y="600" width="290" height="150" as="geometry" />
        </mxCell>
        <mxCell id="TP6RT3fs8-BMAT7wUAnd-5" value="&lt;font style=&quot;font-size: 17px;&quot;&gt;&lt;b&gt;PingPongBuffer&lt;/b&gt;&lt;/font&gt;" style="rounded=0;whiteSpace=wrap;html=1;" vertex="1" parent="1">
          <mxGeometry x="480" y="500" width="290" height="190" as="geometry" />
        </mxCell>
        <mxCell id="TP6RT3fs8-BMAT7wUAnd-6" style="edgeStyle=orthogonalEdgeStyle;rounded=0;orthogonalLoop=1;jettySize=auto;html=1;entryX=-0.002;entryY=0.078;entryDx=0;entryDy=0;entryPerimeter=0;" edge="1" parent="1" source="TP6RT3fs8-BMAT7wUAnd-2" target="TP6RT3fs8-BMAT7wUAnd-5">
          <mxGeometry relative="1" as="geometry">
            <mxPoint x="480" y="510" as="targetPoint" />
            <Array as="points">
              <mxPoint x="415" y="465" />
              <mxPoint x="415" y="515" />
            </Array>
          </mxGeometry>
        </mxCell>
        <mxCell id="TP6RT3fs8-BMAT7wUAnd-7" style="edgeStyle=orthogonalEdgeStyle;rounded=0;orthogonalLoop=1;jettySize=auto;html=1;entryX=-0.001;entryY=0.185;entryDx=0;entryDy=0;entryPerimeter=0;" edge="1" parent="1" target="TP6RT3fs8-BMAT7wUAnd-5">
          <mxGeometry relative="1" as="geometry">
            <mxPoint x="350" y="480" as="sourcePoint" />
            <mxPoint x="479" y="525" as="targetPoint" />
            <Array as="points">
              <mxPoint x="400" y="480" />
              <mxPoint x="400" y="535" />
            </Array>
          </mxGeometry>
        </mxCell>
        <mxCell id="TP6RT3fs8-BMAT7wUAnd-8" style="edgeStyle=orthogonalEdgeStyle;rounded=0;orthogonalLoop=1;jettySize=auto;html=1;entryX=-0.001;entryY=0.29;entryDx=0;entryDy=0;entryPerimeter=0;" edge="1" parent="1" target="TP6RT3fs8-BMAT7wUAnd-5">
          <mxGeometry relative="1" as="geometry">
            <mxPoint x="349" y="495" as="sourcePoint" />
            <mxPoint x="478" y="540" as="targetPoint" />
            <Array as="points">
              <mxPoint x="390" y="495" />
              <mxPoint x="390" y="555" />
            </Array>
          </mxGeometry>
        </mxCell>
        <mxCell id="TP6RT3fs8-BMAT7wUAnd-9" style="edgeStyle=orthogonalEdgeStyle;rounded=0;orthogonalLoop=1;jettySize=auto;html=1;entryX=-0.001;entryY=0.385;entryDx=0;entryDy=0;entryPerimeter=0;startArrow=classic;startFill=1;endArrow=none;" edge="1" parent="1" target="TP6RT3fs8-BMAT7wUAnd-5">
          <mxGeometry relative="1" as="geometry">
            <mxPoint x="349" y="510" as="sourcePoint" />
            <mxPoint x="478" y="555" as="targetPoint" />
            <Array as="points">
              <mxPoint x="380" y="510" />
              <mxPoint x="380" y="573" />
            </Array>
          </mxGeometry>
        </mxCell>
        <mxCell id="TP6RT3fs8-BMAT7wUAnd-10" style="edgeStyle=orthogonalEdgeStyle;rounded=0;orthogonalLoop=1;jettySize=auto;html=1;entryX=0.001;entryY=0.743;entryDx=0;entryDy=0;entryPerimeter=0;exitX=1;exitY=0.075;exitDx=0;exitDy=0;exitPerimeter=0;" edge="1" parent="1">
          <mxGeometry relative="1" as="geometry">
            <mxPoint x="350" y="610" as="sourcePoint" />
            <mxPoint x="480.28999999999996" y="610.2" as="targetPoint" />
            <Array as="points">
              <mxPoint x="400" y="609.75" />
              <mxPoint x="400" y="609.75" />
            </Array>
          </mxGeometry>
        </mxCell>
        <mxCell id="TP6RT3fs8-BMAT7wUAnd-11" style="edgeStyle=orthogonalEdgeStyle;rounded=0;orthogonalLoop=1;jettySize=auto;html=1;entryX=0.001;entryY=0.743;entryDx=0;entryDy=0;entryPerimeter=0;exitX=1;exitY=0.075;exitDx=0;exitDy=0;exitPerimeter=0;" edge="1" parent="1">
          <mxGeometry relative="1" as="geometry">
            <mxPoint x="350" y="630" as="sourcePoint" />
            <mxPoint x="480" y="630" as="targetPoint" />
            <Array as="points">
              <mxPoint x="415" y="630" />
            </Array>
          </mxGeometry>
        </mxCell>
        <mxCell id="TP6RT3fs8-BMAT7wUAnd-12" style="edgeStyle=orthogonalEdgeStyle;rounded=0;orthogonalLoop=1;jettySize=auto;html=1;entryX=0.001;entryY=0.743;entryDx=0;entryDy=0;entryPerimeter=0;exitX=1;exitY=0.075;exitDx=0;exitDy=0;exitPerimeter=0;" edge="1" parent="1">
          <mxGeometry relative="1" as="geometry">
            <mxPoint x="350" y="650" as="sourcePoint" />
            <mxPoint x="480" y="650" as="targetPoint" />
            <Array as="points">
              <mxPoint x="415" y="650" />
            </Array>
          </mxGeometry>
        </mxCell>
        <mxCell id="TP6RT3fs8-BMAT7wUAnd-13" style="edgeStyle=orthogonalEdgeStyle;rounded=0;orthogonalLoop=1;jettySize=auto;html=1;entryX=0.001;entryY=0.743;entryDx=0;entryDy=0;entryPerimeter=0;exitX=1;exitY=0.075;exitDx=0;exitDy=0;exitPerimeter=0;endArrow=none;endFill=1;startFill=1;startArrow=classic;" edge="1" parent="1">
          <mxGeometry relative="1" as="geometry">
            <mxPoint x="350" y="670" as="sourcePoint" />
            <mxPoint x="480" y="670" as="targetPoint" />
            <Array as="points">
              <mxPoint x="415" y="670" />
            </Array>
          </mxGeometry>
        </mxCell>
        <mxCell id="TP6RT3fs8-BMAT7wUAnd-14" style="edgeStyle=orthogonalEdgeStyle;rounded=0;orthogonalLoop=1;jettySize=auto;html=1;" edge="1" parent="1" target="TP6RT3fs8-BMAT7wUAnd-5">
          <mxGeometry relative="1" as="geometry">
            <mxPoint x="350" y="530" as="sourcePoint" />
            <mxPoint x="480" y="570" as="targetPoint" />
            <Array as="points">
              <mxPoint x="370" y="530" />
              <mxPoint x="370" y="591" />
            </Array>
          </mxGeometry>
        </mxCell>
        <mxCell id="TP6RT3fs8-BMAT7wUAnd-15" value="addressA" style="text;html=1;align=left;verticalAlign=middle;whiteSpace=wrap;rounded=0;" vertex="1" parent="1">
          <mxGeometry x="490" y="500" width="50" height="20" as="geometry" />
        </mxCell>
        <mxCell id="TP6RT3fs8-BMAT7wUAnd-16" value="writeEnableA" style="text;html=1;align=left;verticalAlign=middle;whiteSpace=wrap;rounded=0;" vertex="1" parent="1">
          <mxGeometry x="490" y="520" width="70" height="20" as="geometry" />
        </mxCell>
        <mxCell id="TP6RT3fs8-BMAT7wUAnd-17" value="DataInA" style="text;html=1;align=left;verticalAlign=middle;whiteSpace=wrap;rounded=0;" vertex="1" parent="1">
          <mxGeometry x="490" y="540" width="50" height="20" as="geometry" />
        </mxCell>
        <mxCell id="TP6RT3fs8-BMAT7wUAnd-18" value="DataOutA" style="text;html=1;align=left;verticalAlign=middle;whiteSpace=wrap;rounded=0;" vertex="1" parent="1">
          <mxGeometry x="490" y="560" width="50" height="20" as="geometry" />
        </mxCell>
        <mxCell id="TP6RT3fs8-BMAT7wUAnd-19" value="Switch" style="text;html=1;align=left;verticalAlign=middle;whiteSpace=wrap;rounded=0;" vertex="1" parent="1">
          <mxGeometry x="490" y="580" width="50" height="20" as="geometry" />
        </mxCell>
        <mxCell id="TP6RT3fs8-BMAT7wUAnd-20" value="addressB" style="text;html=1;align=left;verticalAlign=middle;whiteSpace=wrap;rounded=0;" vertex="1" parent="1">
          <mxGeometry x="490" y="600" width="50" height="20" as="geometry" />
        </mxCell>
        <mxCell id="TP6RT3fs8-BMAT7wUAnd-21" value="writeEnableB" style="text;html=1;align=left;verticalAlign=middle;whiteSpace=wrap;rounded=0;" vertex="1" parent="1">
          <mxGeometry x="490" y="620" width="70" height="20" as="geometry" />
        </mxCell>
        <mxCell id="TP6RT3fs8-BMAT7wUAnd-22" value="dataInB" style="text;html=1;align=left;verticalAlign=middle;whiteSpace=wrap;rounded=0;" vertex="1" parent="1">
          <mxGeometry x="490" y="640" width="50" height="20" as="geometry" />
        </mxCell>
        <mxCell id="TP6RT3fs8-BMAT7wUAnd-23" value="dataOutB" style="text;html=1;align=left;verticalAlign=middle;whiteSpace=wrap;rounded=0;" vertex="1" parent="1">
          <mxGeometry x="490" y="660" width="50" height="20" as="geometry" />
        </mxCell>
        <mxCell id="TP6RT3fs8-BMAT7wUAnd-24" value="" style="endArrow=none;html=1;rounded=0;strokeWidth=8;" edge="1" parent="1">
          <mxGeometry width="50" height="50" relative="1" as="geometry">
            <mxPoint x="205" y="390" as="sourcePoint" />
            <mxPoint x="205" y="300" as="targetPoint" />
          </mxGeometry>
        </mxCell>
        <mxCell id="TP6RT3fs8-BMAT7wUAnd-25" value="JTAGG ports" style="text;html=1;align=center;verticalAlign=middle;whiteSpace=wrap;rounded=0;" vertex="1" parent="1">
          <mxGeometry x="175" y="400" width="60" height="30" as="geometry" />
        </mxCell>
        <mxCell id="TP6RT3fs8-BMAT7wUAnd-26" value="" style="endArrow=none;html=1;rounded=0;strokeWidth=8;" edge="1" parent="1">
          <mxGeometry width="50" height="50" relative="1" as="geometry">
            <mxPoint x="180" y="890" as="sourcePoint" />
            <mxPoint x="179.5" y="750" as="targetPoint" />
          </mxGeometry>
        </mxCell>
        <mxCell id="TP6RT3fs8-BMAT7wUAnd-27" value="Bus ports" style="text;html=1;align=center;verticalAlign=middle;whiteSpace=wrap;rounded=0;" vertex="1" parent="1">
          <mxGeometry x="140" y="900" width="80" height="30" as="geometry" />
        </mxCell>
        <mxCell id="TP6RT3fs8-BMAT7wUAnd-36" style="edgeStyle=orthogonalEdgeStyle;rounded=0;orthogonalLoop=1;jettySize=auto;html=1;startArrow=classic;startFill=1;endArrow=none;" edge="1" parent="1">
          <mxGeometry relative="1" as="geometry">
            <mxPoint x="310" y="900" as="targetPoint" />
            <mxPoint x="310" y="749.94" as="sourcePoint" />
            <Array as="points">
              <mxPoint x="310" y="860" />
              <mxPoint x="310" y="860" />
            </Array>
          </mxGeometry>
        </mxCell>
        <mxCell id="TP6RT3fs8-BMAT7wUAnd-37" value="Request" style="text;html=1;align=center;verticalAlign=middle;whiteSpace=wrap;rounded=0;" vertex="1" parent="1">
          <mxGeometry x="210" y="900" width="80" height="30" as="geometry" />
        </mxCell>
        <mxCell id="TP6RT3fs8-BMAT7wUAnd-38" value="Granted" style="text;html=1;align=center;verticalAlign=middle;whiteSpace=wrap;rounded=0;" vertex="1" parent="1">
          <mxGeometry x="270" y="900" width="80" height="30" as="geometry" />
        </mxCell>
        <mxCell id="TP6RT3fs8-BMAT7wUAnd-39" value="&lt;font style=&quot;font-size: 29px;&quot;&gt;JTAG Interface&lt;/font&gt;" style="text;html=1;align=center;verticalAlign=middle;whiteSpace=wrap;rounded=0;" vertex="1" parent="1">
          <mxGeometry x="440" y="200" width="280" height="50" as="geometry" />
        </mxCell>
        <mxCell id="TP6RT3fs8-BMAT7wUAnd-42" value="&lt;b&gt;&lt;font style=&quot;font-size: 17px;&quot;&gt;JTAGG&lt;/font&gt;&lt;/b&gt;" style="rounded=0;whiteSpace=wrap;html=1;" vertex="1" parent="1">
          <mxGeometry x="60" y="220" width="290" height="80" as="geometry" />
        </mxCell>
        <mxCell id="TP6RT3fs8-BMAT7wUAnd-43" value="" style="endArrow=classic;html=1;rounded=0;" edge="1" parent="1">
          <mxGeometry width="50" height="50" relative="1" as="geometry">
            <mxPoint x="90" y="220" as="sourcePoint" />
            <mxPoint x="90" y="160" as="targetPoint" />
          </mxGeometry>
        </mxCell>
        <mxCell id="TP6RT3fs8-BMAT7wUAnd-44" value="TDO" style="text;html=1;align=center;verticalAlign=middle;whiteSpace=wrap;rounded=0;" vertex="1" parent="1">
          <mxGeometry x="60" y="130" width="60" height="30" as="geometry" />
        </mxCell>
        <mxCell id="TP6RT3fs8-BMAT7wUAnd-45" value="" style="endArrow=none;html=1;rounded=0;startFill=1;startArrow=classic;" edge="1" parent="1">
          <mxGeometry width="50" height="50" relative="1" as="geometry">
            <mxPoint x="140" y="220" as="sourcePoint" />
            <mxPoint x="140" y="160" as="targetPoint" />
          </mxGeometry>
        </mxCell>
        <mxCell id="TP6RT3fs8-BMAT7wUAnd-46" value="TDI" style="text;html=1;align=center;verticalAlign=middle;whiteSpace=wrap;rounded=0;" vertex="1" parent="1">
          <mxGeometry x="110" y="130" width="60" height="30" as="geometry" />
        </mxCell>
        <mxCell id="TP6RT3fs8-BMAT7wUAnd-47" value="" style="endArrow=none;html=1;rounded=0;startFill=1;startArrow=classic;" edge="1" parent="1">
          <mxGeometry width="50" height="50" relative="1" as="geometry">
            <mxPoint x="190" y="220" as="sourcePoint" />
            <mxPoint x="190" y="160" as="targetPoint" />
          </mxGeometry>
        </mxCell>
        <mxCell id="TP6RT3fs8-BMAT7wUAnd-48" value="TCK" style="text;html=1;align=center;verticalAlign=middle;whiteSpace=wrap;rounded=0;" vertex="1" parent="1">
          <mxGeometry x="160" y="130" width="60" height="30" as="geometry" />
        </mxCell>
        <mxCell id="TP6RT3fs8-BMAT7wUAnd-49" value="" style="endArrow=none;html=1;rounded=0;startFill=1;startArrow=classic;" edge="1" parent="1">
          <mxGeometry width="50" height="50" relative="1" as="geometry">
            <mxPoint x="240" y="220" as="sourcePoint" />
            <mxPoint x="240" y="160" as="targetPoint" />
          </mxGeometry>
        </mxCell>
        <mxCell id="TP6RT3fs8-BMAT7wUAnd-50" value="TMS" style="text;html=1;align=center;verticalAlign=middle;whiteSpace=wrap;rounded=0;" vertex="1" parent="1">
          <mxGeometry x="210" y="130" width="60" height="30" as="geometry" />
        </mxCell>
        <mxCell id="TP6RT3fs8-BMAT7wUAnd-51" value="" style="endArrow=classic;html=1;rounded=0;entryX=0.5;entryY=0;entryDx=0;entryDy=0;" edge="1" parent="1" target="TP6RT3fs8-BMAT7wUAnd-5">
          <mxGeometry width="50" height="50" relative="1" as="geometry">
            <mxPoint x="240" y="200" as="sourcePoint" />
            <mxPoint x="290" y="150" as="targetPoint" />
            <Array as="points">
              <mxPoint x="430" y="200" />
              <mxPoint x="430" y="350" />
              <mxPoint x="625" y="350" />
            </Array>
          </mxGeometry>
        </mxCell>
        <mxCell id="TP6RT3fs8-BMAT7wUAnd-53" value="ClockA" style="text;html=1;align=center;verticalAlign=middle;whiteSpace=wrap;rounded=0;" vertex="1" parent="1">
          <mxGeometry x="595" y="500" width="60" height="30" as="geometry" />
        </mxCell>
        <mxCell id="TP6RT3fs8-BMAT7wUAnd-56" style="edgeStyle=orthogonalEdgeStyle;rounded=0;orthogonalLoop=1;jettySize=auto;html=1;startArrow=classic;startFill=1;endArrow=none;" edge="1" parent="1">
          <mxGeometry relative="1" as="geometry">
            <mxPoint x="110" y="900.06" as="targetPoint" />
            <mxPoint x="110" y="750" as="sourcePoint" />
            <Array as="points">
              <mxPoint x="110" y="860.06" />
              <mxPoint x="110" y="860.06" />
            </Array>
          </mxGeometry>
        </mxCell>
        <mxCell id="TP6RT3fs8-BMAT7wUAnd-57" value="System Clock" style="text;html=1;align=center;verticalAlign=middle;whiteSpace=wrap;rounded=0;" vertex="1" parent="1">
          <mxGeometry x="70" y="900.06" width="80" height="30" as="geometry" />
        </mxCell>
        <mxCell id="TP6RT3fs8-BMAT7wUAnd-58" value="" style="endArrow=classic;html=1;rounded=0;entryX=0.5;entryY=1;entryDx=0;entryDy=0;" edge="1" parent="1" target="TP6RT3fs8-BMAT7wUAnd-5">
          <mxGeometry width="50" height="50" relative="1" as="geometry">
            <mxPoint x="110" y="810" as="sourcePoint" />
            <mxPoint x="160" y="760" as="targetPoint" />
            <Array as="points">
              <mxPoint x="625" y="810" />
            </Array>
          </mxGeometry>
        </mxCell>
        <mxCell id="TP6RT3fs8-BMAT7wUAnd-59" value="ClockB" style="text;html=1;align=center;verticalAlign=middle;whiteSpace=wrap;rounded=0;" vertex="1" parent="1">
          <mxGeometry x="595" y="660" width="60" height="30" as="geometry" />
        </mxCell>
        <mxCell id="TP6RT3fs8-BMAT7wUAnd-62" value="" style="endArrow=none;html=1;rounded=0;strokeWidth=8;" edge="1" parent="1">
          <mxGeometry width="50" height="50" relative="1" as="geometry">
            <mxPoint x="130" y="600" as="sourcePoint" />
            <mxPoint x="130" y="540" as="targetPoint" />
          </mxGeometry>
        </mxCell>
        <mxCell id="TP6RT3fs8-BMAT7wUAnd-63" value="Configuration&lt;div&gt;registers&lt;/div&gt;" style="text;html=1;align=center;verticalAlign=middle;whiteSpace=wrap;rounded=0;" vertex="1" parent="1">
          <mxGeometry x="90" y="600" width="80" height="40" as="geometry" />
        </mxCell>
        <mxCell id="TP6RT3fs8-BMAT7wUAnd-67" value="" style="endArrow=none;html=1;rounded=0;strokeWidth=8;" edge="1" parent="1">
          <mxGeometry width="50" height="50" relative="1" as="geometry">
            <mxPoint x="275" y="600" as="sourcePoint" />
            <mxPoint x="275" y="540" as="targetPoint" />
          </mxGeometry>
        </mxCell>
        <mxCell id="TP6RT3fs8-BMAT7wUAnd-68" value="Control Signals" style="text;html=1;align=center;verticalAlign=middle;whiteSpace=wrap;rounded=0;" vertex="1" parent="1">
          <mxGeometry x="235" y="600" width="80" height="40" as="geometry" />
        </mxCell>
        <mxCell id="TP6RT3fs8-BMAT7wUAnd-69" value="Synchro&lt;div&gt;flops&lt;/div&gt;" style="whiteSpace=wrap;html=1;aspect=fixed;" vertex="1" parent="1">
          <mxGeometry x="250" y="490" width="50" height="50" as="geometry" />
        </mxCell>
        <mxCell id="TP6RT3fs8-BMAT7wUAnd-70" value="" style="endArrow=none;html=1;rounded=0;strokeWidth=8;" edge="1" parent="1">
          <mxGeometry width="50" height="50" relative="1" as="geometry">
            <mxPoint x="204.5" y="600" as="sourcePoint" />
            <mxPoint x="204.5" y="540" as="targetPoint" />
          </mxGeometry>
        </mxCell>
        <mxCell id="TP6RT3fs8-BMAT7wUAnd-71" value="DMA&#39;s status" style="text;html=1;align=center;verticalAlign=middle;whiteSpace=wrap;rounded=0;" vertex="1" parent="1">
          <mxGeometry x="175" y="500" width="60" height="30" as="geometry" />
        </mxCell>
      </root>
    </mxGraphModel>
  </diagram>
</mxfile>
